<?xml version="1.0" encoding="utf-8"?>
<!-- Generator: Adobe Illustrator 21.0.0, SVG Export Plug-In . SVG Version: 6.00 Build 0)  -->
<svg version="1.1" id="Capa_1" xmlns="http://www.w3.org/2000/svg" xmlns:xlink="http://www.w3.org/1999/xlink" x="0px" y="0px"
	 viewBox="0 0 489 489" style="enable-background:new 0 0 489 489;" xml:space="preserve">
<style type="text/css">
	.st0{fill:#FFFFFF;}
</style>
<g>
	<g>
		<path class="st0" d="M2.2,167.8L0.1,16.5C0,8.8,6.3,2.5,14,2.6l151.3,2.2c12.1,0.2,18.1,14.8,9.5,23.4l-42.1,42.1l70,70l-65,65
			l-70-70l-42.1,42.1C17.1,185.9,2.4,179.9,2.2,167.8z"/>
		<path class="st0" d="M421.3,136.2l42.1,42.1c8.6,8.6,23.2,2.6,23.4-9.5L489,17.5c0.1-7.7-6.2-14-13.9-13.9L323.8,5.8
			c-12.1,0.2-18.1,14.8-9.5,23.4l42,41.9l-70,70l65,65L421.3,136.2z"/>
		<path class="st0" d="M314.2,460.1c-8.6,8.6-2.6,23.2,9.5,23.4l151.3,2.2c7.7,0.1,14-6.2,13.9-13.9l-2.2-151.3
			c-0.2-12.1-14.8-18.1-23.4-9.5l-42.1,42.1l-70-70l-65,65l70,70L314.2,460.1z"/>
		<path class="st0" d="M14,484.7l151.3-2.2c12.1-0.2,18.1-14.8,9.5-23.4l-42.1-42l70-70l-65-65l-70,70L25.6,310
			c-8.6-8.6-23.2-2.6-23.4,9.5L0,470.8C0,478.5,6.3,484.8,14,484.7z"/>
	</g>
</g>
</svg>
