<?xml version="1.0" encoding="iso-8859-1"?>
<!-- Generator: Adobe Illustrator 19.0.0, SVG Export Plug-In . SVG Version: 6.00 Build 0)  -->
<svg version="1.1" id="Layer_1" xmlns="http://www.w3.org/2000/svg" xmlns:xlink="http://www.w3.org/1999/xlink" x="0px" y="0px"
	 viewBox="0 0 504.72 504.72" style="enable-background:new 0 0 504.72 504.72;" xml:space="preserve">
<path style="fill:#3AD5F9;" d="M252.952,0.36C113.784,0.36,0,104.832,0,233.696C0,307.12,36.952,372.624,92.952,415.4v88.96
	l86.776-47.088c22.896,6.344,47.632,9.76,72.752,9.76c139.168,0,252.24-104.472,252.24-233.336S392.12,0.36,252.952,0.36z
	 M278.008,314.584l-64.184-68.448L88.608,314.584L226.352,168.36l65.736,68.448l123.656-68.448L278.008,314.584z"/>
<path style="fill:#0382F9;" d="M252.952,19.648C113.784,19.648,0,104.824,0,233.696C0,307.12,36.952,372.624,92.952,415.4v88.96
	l86.776-47.088c22.896,6.344,47.632,9.76,72.752,9.76c139.168,0,252.24-104.472,252.24-233.336S392.12,19.648,252.952,19.648z
	 M278.008,314.584l-64.184-68.448L88.608,314.584L226.352,168.36l65.736,68.448l123.656-68.448L278.008,314.584z"/>
<g>
	<polygon style="fill:#0656F7;" points="401.064,176.488 283.4,227.76 292.088,236.8 	"/>
	<path style="fill:#0656F7;" d="M412.984,171.288L278.008,314.584l-56.24-59.968l-115.68,50.408l-17.48,9.56l3.096-3.288
		L27.16,339.008c16.24,29.648,38.416,55.84,65.792,76.392v88.96l86.776-47.088c22.896,6.344,47.632,9.76,72.752,9.76
		c139.168,0,252.24-104.472,252.24-233.336c0-33.192-8.768-64.144-22.256-92.728L412.984,171.288z"/>
</g>
<g>
</g>
<g>
</g>
<g>
</g>
<g>
</g>
<g>
</g>
<g>
</g>
<g>
</g>
<g>
</g>
<g>
</g>
<g>
</g>
<g>
</g>
<g>
</g>
<g>
</g>
<g>
</g>
<g>
</g>
</svg>
