<?xml version="1.0" encoding="utf-8"?>
<svg xmlns="http://www.w3.org/2000/svg" xmlns:xlink="http://www.w3.org/1999/xlink" version="1.1" viewBox="0 0 129 129" enable-background="new 0 0 129 129" width="512px" height="512px">
  <g>
    <g>
      <path d="M118.4,114.4H14.6V10.6c0-2.3-1.8-4.1-4.1-4.1s-4.1,1.8-4.1,4.1v107.9c0,2.3,1.8,4.1,4.1,4.1h107.9c2.3,0,4.1-1.8,4.1-4.1    S120.7,114.4,118.4,114.4z" fill="#006DF0"/>
      <path d="m54.3,98.6v-59c0-2.3-1.8-4.1-4.1-4.1-2.3,0-4.1,1.8-4.1,4.1v59c0,2.3 1.8,4.1 4.1,4.1 2.3,1.42109e-14 4.1-1.8 4.1-4.1z" fill="#006DF0"/>
      <path d="m34.5,98.6v-59c0-2.3-1.8-4.1-4.1-4.1s-4.1,1.8-4.1,4.1v59c0,2.3 1.8,4.1 4.1,4.1s4.1-1.8 4.1-4.1z" fill="#006DF0"/>
      <path d="m93.9,98.6v-59c0-2.3-1.8-4.1-4.1-4.1s-4.1,1.8-4.1,4.1v59c0,2.3 1.8,4.1 4.1,4.1s4.1-1.8 4.1-4.1z" fill="#006DF0"/>
      <path d="m113.7,98.6v-29.5c0-2.3-1.8-4.1-4.1-4.1-2.3,0-4.1,1.8-4.1,4.1v29.5c0,2.3 1.8,4.1 4.1,4.1 2.3,1.42109e-14 4.1-1.8 4.1-4.1z" fill="#006DF0"/>
      <path d="m74.1,98.6v-29.5c0-2.3-1.8-4.1-4.1-4.1s-4.1,1.8-4.1,4.1v29.5c0,2.3 1.8,4.1 4.1,4.1s4.1-1.8 4.1-4.1z" fill="#006DF0"/>
    </g>
  </g>
</svg>
