<svg id="Layer_1" data-name="Layer 1" xmlns="http://www.w3.org/2000/svg" viewBox="0 0 1821.95 443.91"><defs><style>.cls-1{fill:#5552eb;}.cls-2{fill:#fff;}.cls-3{fill:#4e4bd7;}.cls-4{fill:#4340b8;}.cls-5{fill:#4e4cd9;}.cls-6{fill:#101014;opacity:0.34;isolation:isolate;}</style></defs><title>MrReply_logo_SVG</title><g id="_5552ebff" data-name="#5552ebff"><path class="cls-1" d="M240.6,24.9A222.81,222.81,0,0,1,358.1,46.8C408.3,71.4,448.5,115.6,468,168A222,222,0,0,1,93,392.1,219.28,219.28,0,0,1,42,288,221.76,221.76,0,0,1,240.6,24.9M130.3,148.2a12.88,12.88,0,0,0-7.1,12.7c0,50.7-.1,101.5.1,152.2-.1,6.6,1.8,13.5,6.3,18.4,5.5,4.8,13.3,3.1,19.9,3.3-3.2.7-6.4,1.3-9.6,1.7,6.5,7.3,17,4.1,25.5,5.2.8,9.4-.9,19,.7,28.4a17.43,17.43,0,0,0,13.6,13.7c4.1,5.3,11.3,8.8,18,7s12.5-6,18.2-9.8c11.2-7.7,22.8-14.8,33.8-22.9-.1,6.2.1,12.8,3.3,18.3,2.4,4.2,7.3,6.1,11.9,7.2,2.1,4.9,7.6,6.7,12.5,7.3,6.1.8,11.8-2.4,16.9-5.4,18.8-12.5,37.6-25.1,56.4-37.6,4.3-2.8,9.1-5.5,14.4-5.7,8.4-.5,16.7.7,25.1.1,8.7-.1,16.9-7.3,17.9-16,.5-24-.2-48,.2-72-.6-16.7.5-33.3-.3-50,0-7.3.3-14.6,0-22s1.7-15.7-2.6-22.3c-2.4-2.8-6-6.3-10-5-2.5-6.3-9.8-8.5-16.1-8.4q-118.05.15-236.1.2C138.7,146.5,134.2,146.1,130.3,148.2Z" transform="translate(-38 -24.06)"/><path class="cls-1" d="M1480.3,107.3c10.3,0,20.7-.1,31,0-.1,19.2,0,38.5,0,57.7h33c14.5,35.9,29.1,71.6,43.5,107.5,14.5-35.8,29.1-71.6,43.5-107.5h33.4q-35.55,86.85-71,173.8c-6.4,15.2-20.2,27.7-36.7,30.3-15.9,2.8-32.5-3.1-44.2-14,4.7-8.5,9.5-16.8,14.1-25.3,4.6,4,9.8,7.7,15.9,8.8a21.84,21.84,0,0,0,21.3-7.6c4.7-5.5,7.8-13.6,4.4-20.6-18.3-48.5-38-96.5-57.3-144.6V311.5h-31Q1480.35,209.35,1480.3,107.3Z" transform="translate(-38 -24.06)"/><path class="cls-1" d="M584,119.3h50.8c19.4,40.1,38.6,80.2,57.9,120.3,19.2-40.1,38.6-80.2,57.8-120.3h50.6V311.6H768.3V162.2Q735,228.5,701.6,294.9H683.2c-22.1-44.2-44.1-88.4-66.4-132.5V311.6H584Q584,215.3,584,119.3Z" transform="translate(-38 -24.06)"/><path class="cls-1" d="M1004.3,119.3h65.8c17.1-.3,34.6.4,51.1,5.7,10.6,3.3,20.8,9.5,27,18.9,7.9,11.7,9.9,26.3,9.6,40.1-.2,14.6-3.9,29.8-13.8,40.9-7.2,8.2-17.1,13.6-27.5,16.7q25.2,35,50.3,69.8h-41.6q-23-32.25-45.8-64.5c-14.1.1-28.2,0-42.3,0v64.5h-32.7c-.2-64-.1-128.1-.1-192.1m32.7,29.5v68.5h44.1c10.6-.5,21.9-1.2,31.2-6.9,9.2-6.1,12-17.9,12-28.4.1-9.2-1.7-19.7-9.5-25.7-7.7-5.4-17.6-6.4-26.7-7.2C1071.1,148.3,1054,148.9,1037,148.8Z" transform="translate(-38 -24.06)"/><path class="cls-1" d="M856,193.9c9.5-17,27.2-30.6,47.2-31.2.1,10.5.4,21,.3,31.5-12.1-.6-25,2.8-33.5,11.9-10.2,10.9-13.8,26.3-14,40.9-.1,21.5,0,43,0,64.5H825V165h31Z" transform="translate(-38 -24.06)"/><path class="cls-1" d="M1225,164.2c20.7-3.7,43.2,0,60.3,12.6,10.5,7.4,18.9,17.9,22.7,30.3,4.8,14.4,3.3,29.8,3.5,44.8H1196.8a33.58,33.58,0,0,0,9.4,21.1,50.12,50.12,0,0,0,33.7,14.1c11.5.3,23.4-1.7,33.2-7.9,4.1-2.5,7.5-6,10.7-9.5,6,6.5,11.9,13,17.8,19.5a78.75,78.75,0,0,1-43.5,23c-18.9,3.3-39.4,1.8-56.2-8a74.49,74.49,0,0,1-23.2-20.8,71.25,71.25,0,0,1-12.2-33.2c-1.6-13.4-.7-27.2,3.6-39.9,8.2-23.9,30.4-41.6,54.9-46.1M1203.9,206c-4.9,6-7,13.8-7.2,21.5h83.8c-.2-10.2-3.3-21-11.3-27.8C1250.8,183.4,1219.4,187.3,1203.9,206Z" transform="translate(-38 -24.06)"/><path class="cls-1" d="M1373.8,168.8c13.8-7.4,30.5-7.3,45.3-3.3a70.78,70.78,0,0,1,43.4,36c8.2,17.1,9.2,37.1,5.6,55.5a72.44,72.44,0,0,1-27.6,43.3c-16.2,12.6-38.7,16.8-58.3,10.4-12-3.9-22.5-11.8-30.9-21.1.1,25,0,50.1,0,75.1h-31V164.9h31v25.4c5.7-8.7,13.1-16.5,22.5-21.5m12.8,21.9c-11.7,2-21.9,9.8-28.2,19.7-7.1,11.1-8.9,24.9-6.9,37.8a45.57,45.57,0,0,0,23.1,33.1c10.6,5.6,23.5,6,34.6,2,14.6-5.5,26.1-18.7,28.8-34.1,2.5-13.7.3-28.6-8-40.1a49.24,49.24,0,0,0-15.3-13.8A41.08,41.08,0,0,0,1386.6,190.7Z" transform="translate(-38 -24.06)"/><path class="cls-1" d="M376.1,170.8l.3-.1c.5,44.4.1,88.9.2,133.3.1,3.7-.3,8.7-4.5,10-7,1.6-14-1-21-.6a21.55,21.55,0,0,0-11,3.4c-9.9,6.1-19.9,12.1-29.7,18.4-10.2,6.4-19.8,13.7-29.8,20.2-.1-6.9.2-14.7-4.8-20.1-1.8-2.4-4.7-3.4-7.5-3.9l-.4-.1c-2.8-4.4-6.9-8.1-12-9.2-6.3-1.7-12.6,1.4-17.8,4.8-14.2,9.4-28.4,19-42.5,28.6-.5-8.1.9-16.6-2.6-24.2a11.56,11.56,0,0,0-9.6-7l-.3-.1c-5.1-10.2-18.2-10.6-28-9.6a92.35,92.35,0,0,1-1-11.7c0-37.7.1-75.3-.1-113,.2-4.9-.1-10.3,2.6-14.7,2.9-3.2,7.6-3.4,11.6-3.6,64.3.1,128.7,0,193,.1,4.8.3,9.9.4,14.9-.9M209.4,195.4c-10.5,4.9-13.5,21-5,29.1,4.4,4.5,10.9,5.9,17,5.1-1.6.5-3.1,1.2-4.6,1.8,4.9,5.2,13.2,6.1,19.5,2.9,6.4-2.6,10.1-9.7,9.9-16.4a19.94,19.94,0,0,0-6.9-13.2c-1.5-1-3.6-2.9-4.9-.5a18.91,18.91,0,0,0-9.3-9.2c-5-2.3-10.8-1.7-15.7.4m79.8,22.5c2.9,8.1,11.7,13.1,20.1,11.9-1.2.5-2.3,1-3.5,1.6,6.8,7.4,19.9,5.9,25.6-2.1,7.5-8.1,3.1-22.1-6.5-26.4l-1.6,1.6c-3.5-7.5-12.1-12.4-20.3-10.6-10.5,1.8-17,14.1-13.8,24M207.4,268a12,12,0,0,0,5.2,8.4,81.68,81.68,0,0,0,28,13.9c-.4.3-1.3.9-1.8,1.2,24.8,12.3,56.1,9.9,78.9-5.9,4.4-2.7,9.2-6.7,9-12.4-.3-4.1-4.2-6.4-7.6-7.9l-2.4,4.8c.9-4.5-.7-9.7-5.1-11.8-3.8-2.1-8.5-1-11.7,1.5-8.6,6.2-18.4,11-29,12.5-15.3,2.6-31.1-2-43.8-10.6-3.1-2-6.3-4.7-10.2-4.5C211.6,257.2,206.7,262.6,207.4,268Z" transform="translate(-38 -24.06)"/><path class="cls-1" d="M907.2,273.3a21.25,21.25,0,0,1,20.1,4.4A19.51,19.51,0,0,1,934,294c-.1,11.3-11.1,20.8-22.2,19.6-10.5-.4-19.4-10.2-18.9-20.7C892.5,284.1,898.8,275.8,907.2,273.3Z" transform="translate(-38 -24.06)"/></g><g id="_ffffffff" data-name="#ffffffff"><path class="cls-2" d="M130.3,148.2c3.9-2.1,8.5-1.7,12.8-1.8q118,0,236.1-.2c6.2-.1,13.6,2.2,16.1,8.4,2.2,5.5,1.6,11.4,1.6,17.2v145c.5,9.1-7.5,16.4-16,17.8-12.3,2.1-25.8-4-37.3,2.7-21.1,13.9-42,28.1-63.1,42a22.87,22.87,0,0,1-15.6,3.8c-4.5-1.1-9.4-2.9-11.9-7.2-3.2-5.5-3.4-12.1-3.3-18.3-.2-3.5.9-9.1-3.6-10.3-4.4.7-7.8,3.7-11.4,6-13.5,8.9-26.9,17.9-40.4,26.7a21.47,21.47,0,0,1-14.6,3.3c-6.7-1.4-12.5-6.8-13.6-13.7-1.5-9.4.2-18.9-.7-28.4-.8-2.5-1.9-5.3-4.5-6.4-3.6-1.5-7.6-.8-11.4-.5-6.6-.2-14.4,1.5-19.9-3.3-4.5-4.9-6.5-11.8-6.3-18.4-.2-50.7,0-101.5-.1-152.2a12.46,12.46,0,0,1,7.1-12.2M145,166.1c-3.3,3-3,7.9-3.2,11.9.1,40.7,0,81.4,0,122,.3,4.3.1,9.5,3.6,12.6,2.6,2.3,6.2,2,9.4,2.1,9.9-1.1,22.9-.6,28,9.6l.3.1c2.3,8.4,1,17.1,1.5,25.7.1,2.6,1,5.6,3.4,7,2.5,1,5.1-.6,7.3-1.6,14.2-9.6,28.3-19.2,42.5-28.6,5.2-3.3,11.5-6.4,17.8-4.8,5.2,1.1,9.3,4.9,12,9.2l.4.1c3,8.2.3,17.1,3.5,25.3a19.33,19.33,0,0,0,8.9-1.3c10.1-6.6,19.7-13.8,29.8-20.2,9.8-6.3,19.8-12.3,29.7-18.4a21.55,21.55,0,0,1,11-3.4c7-.4,14.1,2.2,21,.6,4.2-1.4,4.6-6.3,4.5-10-.2-44.5.3-88.9-.2-133.3l-.3.1c-.6-1.9-.7-4.1-2.4-5.4-2.4-2-5.8-1.8-8.7-1.9-69.7.1-139.4-.1-209.1.2C152.2,163.7,148,163.4,145,166.1Z" transform="translate(-38 -24.06)"/><path class="cls-2" d="M209.4,195.4c4.9-2.2,10.7-2.7,15.7-.4a19.76,19.76,0,0,1,9.3,9.2c2.2,6.1,2,13.6-2.3,18.8-2.6,3.5-6.6,5.4-10.7,6.6-6.1.8-12.6-.6-17-5.1C195.9,216.5,198.9,200.3,209.4,195.4Z" transform="translate(-38 -24.06)"/><path class="cls-2" d="M289.2,217.9c-3.2-9.9,3.3-22.2,13.8-24.1,8.3-1.8,16.8,3.1,20.3,10.6,2.1,6.1,2,13.4-2.3,18.6-2.8,3.8-7.3,5.6-11.8,6.8C300.9,231,292,225.9,289.2,217.9Z" transform="translate(-38 -24.06)"/><path class="cls-2" d="M207.4,268c-.7-5.4,4.2-10.9,9.6-10.7,3.9-.2,7.1,2.5,10.2,4.5,12.6,8.6,28.5,13.2,43.8,10.6,10.5-1.5,20.4-6.3,29-12.5,3.3-2.5,8-3.6,11.7-1.5,4.3,2.1,6,7.3,5.1,11.8a15.51,15.51,0,0,1-4.1,5.4c-19.8,16.1-47.5,21.6-72.1,14.8a83.51,83.51,0,0,1-28-13.9C209.9,274.4,207.7,271.5,207.4,268Z" transform="translate(-38 -24.06)"/></g><g id="_4e4bd7ff" data-name="#4e4bd7ff"><path class="cls-3" d="M395.2,154.8c4-1.3,7.6,2.2,10,5,4.3,6.6,2.4,14.9,2.6,22.3s0,14.6,0,22c.7,16.7-.4,33.3.3,50-.4,24,.3,48-.2,72-1,8.7-9.2,15.9-17.9,16-8.4.6-16.7-.6-25.1-.1-5.3.2-10,2.9-14.4,5.7q-28.2,18.9-56.4,37.6c-5.1,3-10.7,6.2-16.9,5.4-4.9-.5-10.4-2.4-12.5-7.3a22.61,22.61,0,0,0,15.6-3.8c21.1-13.9,42-28.1,63.1-42,11.4-6.7,25-.6,37.3-2.7,8.5-1.4,16.5-8.8,16-17.8v-145C396.8,166.2,397.3,160.3,395.2,154.8Z" transform="translate(-38 -24.06)"/><path class="cls-3" d="M234.4,204.2c1.3-2.4,3.4-.5,4.9.5a19.53,19.53,0,0,1,6.9,13.2c.2,6.7-3.6,13.8-9.9,16.4-6.2,3.3-14.6,2.3-19.5-2.9,1.5-.6,3-1.3,4.6-1.8,4.1-1.2,8.1-3.1,10.7-6.6C236.4,217.8,236.6,210.4,234.4,204.2Z" transform="translate(-38 -24.06)"/><path class="cls-3" d="M323.3,204.4l1.6-1.6c9.5,4.4,14,18.3,6.5,26.4-5.7,8-18.8,9.5-25.6,2.1a37.27,37.27,0,0,1,3.5-1.6c4.4-1.2,8.9-3,11.8-6.8C325.3,217.9,325.5,210.5,323.3,204.4Z" transform="translate(-38 -24.06)"/><path class="cls-3" d="M316.7,270.2l2.4-4.8c3.4,1.5,7.3,3.8,7.6,7.9.2,5.7-4.6,9.7-9,12.4-22.7,15.8-54,18.1-78.9,5.9.4-.3,1.3-.9,1.8-1.2,24.6,6.9,52.3,1.4,72.1-14.8A17.66,17.66,0,0,0,316.7,270.2Z" transform="translate(-38 -24.06)"/><path class="cls-3" d="M183.2,324.3a11.43,11.43,0,0,1,9.6,7c3.5,7.6,2.1,16.1,2.6,24.2-2.3,1-4.8,2.6-7.3,1.6-2.4-1.4-3.3-4.4-3.4-7C184.1,341.4,185.5,332.7,183.2,324.3Z" transform="translate(-38 -24.06)"/><path class="cls-3" d="M268.1,331.5c2.8.6,5.7,1.5,7.5,3.9,5,5.4,4.7,13.2,4.8,20.1a20.75,20.75,0,0,1-8.9,1.3C268.5,348.6,271.2,339.6,268.1,331.5Z" transform="translate(-38 -24.06)"/><path class="cls-3" d="M234.6,353.6c3.6-2.3,7.1-5.3,11.4-6,4.5,1.2,3.4,6.7,3.6,10.3-11,8-22.6,15.2-33.8,22.9-5.7,3.8-11.5,7.9-18.2,9.8s-13.9-1.7-18-7a21.47,21.47,0,0,0,14.6-3.3C207.7,371.5,221.2,362.5,234.6,353.6Z" transform="translate(-38 -24.06)"/></g><g id="_4340b8ff" data-name="#4340b8ff"><path class="cls-4" d="M1672.8,170.4c-.3-2.3.9-4.2,2.1-6,10.5,1.2,23.2-3.4,31.8,4.7,6.7,5.9,6.3,16.7.5,23.1,3,3.5,5.8,7.6,5.4,12.4.4,9.1-8.4,16.6-17.1,16.5-6.2.1-12.4.2-18.6-.1a4.2,4.2,0,0,1-3.9-4.8c-.2-15.2-.1-30.5-.2-45.8m9.3,3.3v14.2c4.4,0,8.8.2,13.3-.1,5.3-.1,9.3-7.2,5.4-11.4-4.9-4.8-12.6-2-18.7-2.7m0,23.9v14.2c5.6-.2,11.4.8,16.8-.9,5.4-2.1,5.7-10.5.1-12.6C1693.6,196.8,1687.7,197.9,1682.1,197.6Z" transform="translate(-38 -24.06)"/><path class="cls-4" d="M1723.8,170.4c-.3-2.7.8-6.4,4.3-6.2,8.1-.4,16.2,0,24.4-.2,2.8.2,6.7-.6,8.5,2.4,2.3,2.9-.7,7.5-4.2,7.2-7.9.2-15.8,0-23.6.1V188c6.2.2,12.5-.4,18.7.3,4.1,1,4.1,7.6.1,8.8-6.3.6-12.6.1-18.8.2,0,4.9,0,9.7-.1,14.6,8.3.3,16.7-.2,25,.2,4.6.4,4.8,8.4,0,8.9-9.5.5-19,.1-28.5.2-2.9.4-6.4-1.7-5.7-4.9C1723.8,201,1723.9,185.7,1723.8,170.4Z" transform="translate(-38 -24.06)"/><path class="cls-4" d="M1768.4,173.1c-4.5-2.1-2.6-9.6,2.5-8.9,11.4,0,22.9-.4,34.3.3,3.9,1.8,3.1,6.6.4,9-4.7-.1-9.3-.1-13.9-.1-.2,14.7.3,29.4-.2,44.1-.4,4.9-8.5,4.8-8.9,0-.5-14.7,0-29.5-.2-44.2C1777.7,173.3,1773,173.7,1768.4,173.1Z" transform="translate(-38 -24.06)"/><path class="cls-4" d="M1830.1,170.4c1-2.7,2.7-6.8,6.5-5.9,2.8.1,3.5,3.5,4.6,5.5,6,15,12.4,29.8,18.3,44.8,2.3,4.4-4.8,9-7.7,4.8-2-3.4-3.2-7-4.8-10.6-7.6.1-15.2,0-22.8.1-1.7,3.8-2.7,7.9-5.2,11.2-3.5,2.9-9.3-1.3-7.1-5.5,5.9-14.9,12.3-29.6,18.2-44.4m-2,29.3h15.3c-2.5-6.1-5.1-12.2-7.6-18.3C1833,187.4,1830.6,193.6,1828.1,199.7Z" transform="translate(-38 -24.06)"/></g><g id="_4e4cd9ff" data-name="#4e4cd9ff"><path class="cls-5" d="M145,166.1c3-2.7,7.2-2.4,10.9-2.4,69.7-.3,139.4-.1,209.1-.2,2.9.1,6.3-.2,8.7,1.9,1.7,1.3,1.8,3.5,2.4,5.4-4.9,1.4-10.1,1.2-15.1,1.1-64.3,0-128.6.1-193-.1-4,.2-8.8.3-11.6,3.6-2.7,4.4-2.4,9.8-2.6,14.7.1,37.7,0,75.3.1,113a115.4,115.4,0,0,0,1,11.7c-3.2-.1-6.9.3-9.4-2.1-3.6-3.1-3.3-8.3-3.6-12.6v-122C142,173.9,141.7,169.1,145,166.1Z" transform="translate(-38 -24.06)"/><path class="cls-5" d="M149.4,334.7c3.8-.4,7.8-1,11.4.5,2.6,1.1,3.7,3.9,4.5,6.4-8.5-1.1-19,2.1-25.5-5.2C143,336,146.2,335.4,149.4,334.7Z" transform="translate(-38 -24.06)"/></g><g id="_10101457" data-name="#10101457"><path class="cls-6" d="M714,356.51c4.64-.4,8.74,4.77,6.89,9.14-1.46,5.17-9.27,6.22-12.05,1.72C705.69,363.13,709,356.77,714,356.51Z" transform="translate(-38 -24.06)"/><path class="cls-6" d="M735.62,358.23h10.46c0,23.84.13,47.68,0,71.52H735.75C735.49,405.91,735.62,382.07,735.62,358.23Z" transform="translate(-38 -24.06)"/><path class="cls-6" d="M799.85,358.23h10.86c0,23.84.13,47.68-.13,71.52H799.85v-6.89c-4.11,3.84-8.87,7.28-14.7,7.55-11.52,1.46-22.91-6.89-25.83-18-1.85-7.81-1.46-16.69,3-23.57,6-9.14,18.41-13.64,28.61-9.67,3.44,1.46,6.09,4.11,8.74,6.49.13-9.27.13-18.41.13-27.42M784.36,387a15.47,15.47,0,0,0-10.6,5c-6.75,7.15-6.22,20.4,2.25,26.09,6.89,5.17,17.75,3,21.85-4.64C804.36,403.26,797.47,386.44,784.36,387Z" transform="translate(-38 -24.06)"/><path class="cls-6" d="M1097.58,358.09c3.58,0,7,.13,10.6.13-.13,9.4-.13,18.94,0,28.34,3.18-3.18,6.49-6.89,11-8.08,9.8-2.91,21.19,1.72,26.62,10.33,8.08,12.85,4.11,32.45-10.07,39.34-9.27,5-20.53,1.59-27.55-5.56-.13,2.38-.13,4.77-.13,7.15h-10.46c-.13-24,0-47.81,0-71.65M1123.28,387c-14.44-.13-20.26,20.13-10.6,29.53,6.62,7,19.34,5,24-3.31C1143.14,403,1136,386.83,1123.28,387Z" transform="translate(-38 -24.06)"/><path class="cls-6" d="M580,362.47h26.49c5.83,0,12.18.66,17.09,4.24,6.09,4.64,8.08,13.64,5.17,20.66-1.46,3.31-4.77,5.3-7.55,7.42,3.31,1.59,7,2.91,9.27,6,6,7.55,3.71,19.87-4.37,25.16-5.43,3.44-12.05,3.84-18.28,3.84H580c0-22.38,0-44.9,0-67.28m11.65,10.33v17.48c7.15-.26,14.57.93,21.59-1.06s6.62-13.91-.53-15.5c-6.89-1.72-14-.79-21.06-.93m0,28.08c-.13,6.09-.13,12.18,0,18.14,6.75-.13,13.51.26,20.26-.13,2.91-.26,6.22-.66,8.34-2.91,3.71-4.64,2-13-4.37-14.3C607.95,399.95,599.73,401.27,591.65,400.87Z" transform="translate(-38 -24.06)"/><path class="cls-6" d="M1226.58,362.47h10.86v15.76c4.37.13,8.87.13,13.24.13v8.48c-4.37,0-8.87,0-13.24.13.13,9-.26,18,.13,27a6.75,6.75,0,0,0,5.83,6.89c3,.66,5.7-1.72,8.34-2.91,1.32,2.52,2.78,5.17,4.11,7.68-3.84,2.25-7.81,4.77-12.45,4.64-7.95.4-15.5-6-16.42-13.77-1.06-9.67.26-19.34-.53-29-1.72-1.19-4.11-.53-6.09-1.06v-8.21c2.12,0,4.11-.13,6.22-.13C1226.71,373.06,1226.71,367.76,1226.58,362.47Z" transform="translate(-38 -24.06)"/><path class="cls-6" d="M646.22,378.36h10.6c.13,9.67-.26,19.47.13,29.14.13,4.37,1.32,9.54,5.43,11.65,7.81,4.5,19.6-1.06,20-10.46.66-10.07.13-20.13.13-30.2,3.58,0,7-.13,10.6-.13.13,17.09,0,34.3,0,51.39h-10.6c0-2.91.13-5.83.13-8.74-3.18,3.31-6.36,7-10.86,8.48-7.28,2.25-16.29.93-21.32-5.17-3.71-4.24-4.5-9.93-4.5-15.36C646.22,398.62,646.22,388.56,646.22,378.36Z" transform="translate(-38 -24.06)"/><path class="cls-6" d="M709.13,378.36h10.46c0,17.22.13,34.3-.13,51.52-3.58-.13-7-.13-10.6-.4C709.26,412.4,709,395.44,709.13,378.36Z" transform="translate(-38 -24.06)"/><path class="cls-6" d="M846.08,378.36H857.6c5.17,12.45,9.8,25.16,15.36,37.35,5.3-12.45,10.07-25,15.36-37.48,3.84,0,7.55,0,11.39.13-8.08,20-16.29,39.87-24.37,59.73-2.38,6.22-7.81,11.52-14.7,11.92-5.3.53-10.07-2-14.17-5l4.77-8.34c2.91,1.32,6,3.31,9.4,2.38,4.24-1.19,7.28-6.22,5.3-10.33C859.72,411.87,852.7,395.18,846.08,378.36Z" transform="translate(-38 -24.06)"/><path class="cls-6" d="M922.1,378.89c7-2,14.83-1.72,21.32,1.46a26,26,0,0,1,14.3,25.83c-.53,14.17-14.3,25.56-28.21,24.24-13.11.13-24.9-11.13-25.56-24.24-1.19-11.92,6.75-23.84,18.14-27.28m2.65,9.4c-10.6,3.84-13.11,19.2-6,27.28,6.22,7.15,19.07,6.89,24.9-.66,4.77-6.36,4.77-16.16-.4-22.25C938.79,387.36,931,385.91,924.75,388.29Z" transform="translate(-38 -24.06)"/><path class="cls-6" d="M969.64,378.36h10.6c.13,9.27-.13,18.54.13,27.81.13,4.64.93,10.33,5.3,13,6.36,3.58,15.5,1.06,18.81-5.56,1.72-3.58,1.59-7.68,1.59-11.39q-.2-11.92,0-23.84h10.6v51.26H1006.2c0-2.91-.13-6-.13-8.87-4.11,5.3-9.93,9.8-17,9.54-9.14.66-18.28-6.09-19.2-15.5C969.25,402.86,970,390.54,969.64,378.36Z" transform="translate(-38 -24.06)"/><path class="cls-6" d="M1033,378.36h10.6v9.8c4-5.56,9.54-9.93,16.56-10.86,0,3.58.13,7.15.13,10.73-6.09.66-12.58,3-14.7,9.27-3.58,10.33-1.19,21.59-2,32.32h-10.46C1033,412.53,1033,395.44,1033,378.36Z" transform="translate(-38 -24.06)"/><path class="cls-6" d="M1177.58,378.76c8.48-2.38,18.28-1.19,25.16,4.5a25.52,25.52,0,0,1,9.93,21.59c.13,9.8-6.22,19.07-15.1,23.18-12.58,6-29.67,1.19-35.89-11.65-7.68-14,.4-33.51,15.89-37.61m2.78,9.4c-10.2,3.31-13.51,17-7.95,25.56,4.64,7.68,16.16,9.27,23.18,4.11,8.74-6.22,8.87-21.06.26-27.42C1191.48,387,1185.39,386.57,1180.36,388.16Z" transform="translate(-38 -24.06)"/></g></svg>